<svg xmlns="http://www.w3.org/2000/svg" width="555" height="54.87" viewBox="0 0 555 54.87">
  <g id="Colored_logo" data-name="Colored logo" transform="translate(0.01)">
    <g id="Group_88851" data-name="Group 88851" transform="translate(-0.01 0)">
      <g id="Group_88848" data-name="Group 88848" transform="translate(0 0.124)">
        <g id="Group_88844" data-name="Group 88844" transform="translate(32.731 19.755)">
          <path id="Path_77725" data-name="Path 77725" d="M19.183,19.536a6.663,6.663,0,0,0,1.13-4.025,9.093,9.093,0,0,0-.371-2.631,4.163,4.163,0,0,0-1.412,3.054,11.915,11.915,0,0,0,.653,3.6Z" transform="translate(-18.53 -10.02)" fill="#e87200"/>
          <path id="Path_77726" data-name="Path 77726" d="M25.26,11.26a24.169,24.169,0,0,1,.388,4.325c0,5.385-1.042,9.233-2.648,11.987.265.018.547.053.83.053,7.521,0,9.163-7.009,9.163-10.045,0-4.873-4.979-6.179-7.733-6.3Z" transform="translate(-15.109 -11.26)" fill="#e87200"/>
          <path id="Path_77727" data-name="Path 77727" d="M20.7,16.153a7.148,7.148,0,0,1-1.624,4.873,12.693,12.693,0,0,0,1.059,2.066c1.483-1.695,2.224-4.131,2.224-7.327a11.524,11.524,0,0,0-.618-3.725,9.163,9.163,0,0,0-1.571.918,9.7,9.7,0,0,1,.512,3.2Z" transform="translate(-18.109 -10.663)" fill="#e87200"/>
          <path id="Path_77728" data-name="Path 77728" d="M22.6,16.14c0,3.849-1.042,6.409-2.613,8.121a9.1,9.1,0,0,0,1.342,1.395c1.66-2.083,2.772-5.208,2.772-9.886a16.864,16.864,0,0,0-.547-4.219c-.547.141-1.095.318-1.624.512a12.305,12.305,0,0,1,.689,4.1Z" transform="translate(-17.412 -11.038)" fill="#e87200"/>
          <path id="Path_77729" data-name="Path 77729" d="M24.294,15.958c0,5-1.218,8.333-2.984,10.575a7.109,7.109,0,0,0,1.624.724c1.642-2.613,2.683-6.356,2.683-11.687a23.345,23.345,0,0,0-.424-4.29,11.985,11.985,0,0,0-1.483.212,16.834,16.834,0,0,1,.6,4.484Z" transform="translate(-16.402 -11.245)" fill="#e87200"/>
        </g>
        <g id="Group_88845" data-name="Group 88845" transform="translate(17.39)">
          <path id="Path_77730" data-name="Path 77730" d="M18.014,8.334a12.36,12.36,0,0,1,9.8,4.237,10.985,10.985,0,0,0,1.148-1.942A11.24,11.24,0,0,0,19.744,6.48a30.9,30.9,0,0,0-9.9,1.907,4.417,4.417,0,0,0,.424,1.289,24,24,0,0,1,7.75-1.324Z" transform="translate(-9.84 4.836)" fill="#eba900"/>
          <path id="Path_77731" data-name="Path 77731" d="M29.692,10.062C29.391,6.284,27.4.07,20.458.07c-5.367,0-8.615,5.067-10.1,8.915a39.176,39.176,0,0,1,10.734-1.8,13.084,13.084,0,0,1,8.6,2.878Z" transform="translate(-9.442 -0.07)" fill="#eba900"/>
          <path id="Path_77732" data-name="Path 77732" d="M11.606,10.559a19.736,19.736,0,0,1,4.272-.441c2.348,0,6.815.424,9.427,3.266a8.542,8.542,0,0,0,1.483-1.271,11.417,11.417,0,0,0-9.18-4.043A23.568,23.568,0,0,0,10.37,9.253a8.6,8.6,0,0,0,1.236,1.324Z" transform="translate(-9.434 6.053)" fill="#eba900"/>
          <path id="Path_77733" data-name="Path 77733" d="M23.669,12.568C21.232,10.061,17.154,9.69,15,9.69a18.994,18.994,0,0,0-3.46.3,17.384,17.384,0,0,0,8.968,3.3,7.2,7.2,0,0,0,3.178-.724Z" transform="translate(-8.539 7.293)" fill="#eba900"/>
          <path id="Path_77734" data-name="Path 77734" d="M19.729,6.52a12.4,12.4,0,0,1,9.71,4.166,11.7,11.7,0,0,0,.618-2.525,11.546,11.546,0,0,0-8.6-3.3A38.451,38.451,0,0,0,10.2,6.908,11.994,11.994,0,0,0,9.86,8.3,31.04,31.04,0,0,1,19.711,6.52Z" transform="translate(-9.825 3.596)" fill="#eba900"/>
        </g>
        <g id="Group_88846" data-name="Group 88846" transform="translate(0 12.499)">
          <path id="Path_77735" data-name="Path 77735" d="M5.59,15.077c0-3.142,2.013-5.438,4.749-7.062A6.443,6.443,0,0,0,9.086,7.38c-2.6,1.677-4.4,3.919-4.4,6.832a21.08,21.08,0,0,0,2.666,9.18,3.013,3.013,0,0,0,.812-.159,17.563,17.563,0,0,1-2.6-8.139Z" transform="translate(3.608 -6.974)" fill="#b4bd00"/>
          <path id="Path_77736" data-name="Path 77736" d="M6.929,15.315c0-2.719,1.748-4.661,4.166-5.985A5.118,5.118,0,0,0,10.39,8.2c-2.6,1.43-4.52,3.46-4.52,6.25a16.452,16.452,0,0,0,2.419,7.627,4.788,4.788,0,0,0,.706-.636,12.6,12.6,0,0,1-2.066-6.108Z" transform="translate(4.511 -6.346)" fill="#b4bd00"/>
          <path id="Path_77737" data-name="Path 77737" d="M10.865,7.185a9.423,9.423,0,0,0-.971-.035c-3.16,0-9.9,2.6-9.9,7.4,0,5.137,5.72,8.333,9.445,8.933a21.527,21.527,0,0,1-2.525-9.092c0-3.019,1.589-5.367,3.937-7.2Z" transform="translate(0.01 -7.15)" fill="#b4bd00"/>
          <path id="Path_77738" data-name="Path 77738" d="M8.2,15.315a5.07,5.07,0,0,1,2.613-4.361,7.262,7.262,0,0,0-.265-1.624C8.465,10.5,7,12.172,7,14.45A11.516,11.516,0,0,0,8.712,19.8,8.891,8.891,0,0,0,9.3,18.722,7.263,7.263,0,0,1,8.2,15.315Z" transform="translate(5.376 -5.481)" fill="#b4bd00"/>
          <path id="Path_77739" data-name="Path 77739" d="M8.148,14.2a6.129,6.129,0,0,0,.671,2.489,21.112,21.112,0,0,0,1.148-5.9A4.175,4.175,0,0,0,8.13,14.2Z" transform="translate(6.241 -4.364)" fill="#b4bd00"/>
        </g>
        <g id="Group_88847" data-name="Group 88847" transform="translate(9.039 27.876)">
          <path id="Path_77740" data-name="Path 77740" d="M19.468,20.205a13.582,13.582,0,0,1-9.163-3.725c-.424.177-.83.353-1.236.565a14.722,14.722,0,0,0,11,5.526,11.8,11.8,0,0,0,5.526-1.165,7.89,7.89,0,0,0-1.165-2.119,11.967,11.967,0,0,1-4.961.918Z" transform="translate(-2.079 -15.385)" fill="#00afaa"/>
          <path id="Path_77741" data-name="Path 77741" d="M7.741,18.538a7.747,7.747,0,0,0-2.631,5.19c0,6.973,10.857,10.91,15.077,10.91,4.979,0,7.309-3.16,8.333-6.514a17.778,17.778,0,0,1-4.237.494c-6.956,0-12.746-4.608-16.524-10.1Z" transform="translate(-5.11 -13.824)" fill="#00afaa"/>
          <path id="Path_77742" data-name="Path 77742" d="M14.583,15.86a13.8,13.8,0,0,0-4.343.794,12.773,12.773,0,0,0,8.333,3.231,11.712,11.712,0,0,0,4.4-.741c-2.631-2.736-6.779-3.266-8.4-3.266Z" transform="translate(-1.183 -15.86)" fill="#00afaa"/>
          <path id="Path_77743" data-name="Path 77743" d="M20.834,23.078c-4.926,0-9.057-2.736-11.828-6.038-.318.177-.636.353-.936.547,3.072,4.166,7.733,7.662,13.347,7.662a13.439,13.439,0,0,0,5.508-1.077,10.045,10.045,0,0,0-.282-2.277,13.382,13.382,0,0,1-5.808,1.183Z" transform="translate(-2.844 -14.957)" fill="#00afaa"/>
          <path id="Path_77744" data-name="Path 77744" d="M22.131,25.929c-6,0-11.016-3.743-14.282-8.209-.247.177-.459.371-.689.565,3.531,5.208,8.986,9.6,15.553,9.6a16.111,16.111,0,0,0,4.608-.636,15.64,15.64,0,0,0,.282-2.3A14.9,14.9,0,0,1,22.131,25.929Z" transform="translate(-3.541 -14.436)" fill="#00afaa"/>
        </g>
      </g>
      <rect id="Rectangle_3357" data-name="Rectangle 3357" width="1.13" height="49.256" transform="translate(180.728 0.477)" fill="#fff"/>
      <g id="Group_88849" data-name="Group 88849" transform="translate(58.471 0.53)">
        <path id="Path_77745" data-name="Path 77745" d="M106.38.318V9.339c.777,0,1.289-.636,1.289-1.783V.318ZM86.607,7.291A1.528,1.528,0,0,0,88.143,8.3h3.231V7.291A1.528,1.528,0,0,0,92.91,8.3h.741a1.6,1.6,0,0,0,1.13-.318,2.741,2.741,0,0,0,.653-1.218c-.124,1.042,1.836,1.43,3,1.536,1.042.106,1.095-.565,1.095-1.006A1.528,1.528,0,0,0,101.066,8.3h3.2V.318h-1.289V7.291h-2.066a1.274,1.274,0,0,1-1.359-1.43c0-1.624-.353-3.125-1.836-3.125-2.366,0-2.719,2.648-3.513,3.955a.985.985,0,0,1-1.024.6h-.424a1.274,1.274,0,0,1-1.359-1.43V.318H90.1V7.291H87.984a1.274,1.274,0,0,1-1.359-1.43V.318H85.336V7.291H78.927c-1.889,0-1.589-1.518-.671-2.578l-.318-.3c-1.412,1.148-2.207,2.754-1.042,3.6A1.812,1.812,0,0,0,78.08,8.3h8.545V7.291ZM98.224,5.049v2.1a3.933,3.933,0,0,1-2.56-1.095c.141-.459.247-.794.406-1.271.3-.865.653-1.677,1.395-1.483.53.141.759.883.759,1.748ZM48.244.318V9.339c.777,0,1.289-.636,1.289-1.783V.318ZM41.324,8.3V7.291A1.528,1.528,0,0,0,42.86,8.3H46.09V.318H44.8V7.291H42.683a1.274,1.274,0,0,1-1.359-1.43V.318H40.053V7.291h-2.1V6.779c0-2.1-1.359-3.849-3.266-2.436-1.306.971-2.154,2.807-.971,3.672A1.845,1.845,0,0,0,34.9,8.3ZM36.539,7.273h-.812c-1.889,0-1.66-1.836-.6-2.648.936-.724,1.43.441,1.43,1.96v.689Zm94.292-.124a4.022,4.022,0,0,1-2.56-1.095c.159-.459.247-.794.406-1.289.3-.865.671-1.66,1.395-1.483.53.141.759.883.759,1.748v2.1ZM121.4,4.943l.636-.918c1.765.177,1.483,1.607.636,2.542a2.838,2.838,0,0,0-1.253-1.624Zm-5.031,2.33h-.812c-1.889,0-1.66-1.836-.6-2.648.936-.724,1.43.441,1.43,1.96v.689Zm13.894-4.555c-2.366,0-2.719,2.648-3.513,3.955a1.015,1.015,0,0,1-1.024.6h-2.6c.777-.724,1.8-2.542,1.024-3.425-.724-.794-1.977-.794-2.825-.883l-1.324,1.96a3.486,3.486,0,0,1,2.066,2.348h-4.308V6.761c0-2.1-1.359-3.849-3.266-2.436C113.195,5.3,112.347,7.15,113.53,8a1.812,1.812,0,0,0,1.183.282h6.409a1.618,1.618,0,0,0,1.253-.353,1.664,1.664,0,0,0,1.253.353h2.6a1.6,1.6,0,0,0,1.13-.318,2.741,2.741,0,0,0,.653-1.218c-.124,1.042,1.836,1.43,3,1.536,1.024.106,1.095-.565,1.095-1.006V5.843c0-1.624-.335-3.125-1.836-3.125ZM69.006,7.273a2.111,2.111,0,0,1-2.207-2.3c-.035-1.324,1.289-1.765,3.284-1.183l.141-.388a6.293,6.293,0,0,0-2.242-.583c-1.783,0-2.613.883-2.613,2.3a2.433,2.433,0,0,0,1.006,2.154H63.568a1.274,1.274,0,0,1-1.359-1.43V4.572H60.92v2.7H58.1a1.274,1.274,0,0,1-1.359-1.43V2.878H55.447v4.4H53.134c-.636,0-.583-.371-.335-.724l-.335-.23c-.812.865-.653,1.977.794,1.977h3.478V7.291A1.528,1.528,0,0,0,58.272,8.3h3.937V7.291A1.528,1.528,0,0,0,63.745,8.3h6.779V7.291H69.006ZM142.96,5.19A3.527,3.527,0,0,0,139.747,3l-.088.477c2.578.441,1.306,2.066,3.5,3.8h-7.062V.3H134.8V6.514c0,1.148.512,1.765,1.289,1.765h9.5V7.273A3.748,3.748,0,0,1,142.96,5.19ZM61.926,10.645H60.655V9.5h1.271Zm55.241-8.351H115.9V1.147h1.271Zm-1.924,0h-1.271V1.147h1.271Zm26.976,8.351h-1.271V9.5h1.271ZM79.351,3.725a2.879,2.879,0,0,1,2.26-.088l.671-.83c-1.624-.018-2.136-.777-1.765-1.324.371-.53,1.024-.159,1.518.177l.671-.83a1.681,1.681,0,0,0-2.525.371,1.2,1.2,0,0,0,.035,1.554,2.851,2.851,0,0,0-1.183.653l.3.318Z" transform="translate(-33.079 -0.3)" fill="#fff"/>
        <path id="Path_77746" data-name="Path 77746" d="M90.65,14.423h-.812c-1.889,0-1.66-1.836-.6-2.648.936-.724,1.43.441,1.43,1.96v.689Zm9.763-2.33.618-.918c1.765.177,1.483,1.607.636,2.542A2.838,2.838,0,0,0,100.413,12.093Zm9.939-4.625v6.973h-2.119a1.274,1.274,0,0,1-1.359-1.43V7.468h-1.289v6.973h-3.425c.777-.724,1.8-2.542,1.024-3.425-.706-.794-1.977-.794-2.825-.883l-1.324,1.96a3.416,3.416,0,0,1,2.066,2.348H96.794a1.274,1.274,0,0,1-1.359-1.43V7.468H94.146v6.973h-2.1v-.53c0-2.1-1.359-3.849-3.266-2.436-1.306.971-2.154,2.807-.971,3.672a1.845,1.845,0,0,0,1.183.282h1.518c-.282,1.677-.671,3.231-2.966,4.308l.124.388c1.942-.583,3.76-1.412,4.219-4.7h3.531V14.423a1.55,1.55,0,0,0,1.536,1.006h3.178a1.618,1.618,0,0,0,1.253-.353,1.664,1.664,0,0,0,1.253.353h4.2v-1.2a1.144,1.144,0,0,0,.459.918,1.812,1.812,0,0,0,1.183.282h3.125V7.45h-1.289ZM71.53,14.441h-.812c-1.889,0-1.66-1.836-.6-2.648.936-.724,1.43.441,1.43,1.96v.689Zm1.395-.512c.018-2.1-1.359-3.849-3.266-2.436-1.306.971-2.154,2.807-.971,3.672a1.845,1.845,0,0,0,1.183.282h1.518c-.3,1.677-.671,3.231-2.948,4.308l.124.388c1.942-.583,3.743-1.483,4.219-4.7a12.115,12.115,0,0,0,.141-1.536Zm-34.973.512v-.512c0-2.1-1.359-3.849-3.266-2.436-1.306.971-2.154,2.807-.971,3.672a1.812,1.812,0,0,0,1.183.282h6.709V14.441a1.566,1.566,0,0,0,1.536,1.006h3.3V14.441a1.55,1.55,0,0,0,1.536,1.006h4.149c1.006,0,1.095-.565,1.095-1.006a1.55,1.55,0,0,0,1.536,1.006h3.354V14.441a1.55,1.55,0,0,0,1.536,1.006h3.178V7.468H61.538v6.973H59.472a1.274,1.274,0,0,1-1.359-1.43V11.74H56.824v2.7H54.582a1.414,1.414,0,0,1-1.377-1.377c-.141-.971-.583-2.507-1.977-2.507a1.551,1.551,0,0,0-1.695,1.836,3.458,3.458,0,0,0,1.695,2.03H47.8a1.274,1.274,0,0,1-1.359-1.43V11.722H45.155v2.7H42.966a1.274,1.274,0,0,1-1.359-1.43V11.722H40.317v2.7H37.952Zm12.641-2.666c1.324-.794,1.695,1.871,1.695,2.666C50.575,13.505,49.868,12.217,50.592,11.775ZM36.557,14.441h-.812c-1.889,0-1.66-1.836-.6-2.648.936-.724,1.43.441,1.43,1.96v.689Zm.794-4.961H36.08V8.333h1.271Zm9.092,1.148H45.172V9.48h1.271ZM35.427,9.48H34.156V8.333h1.271Zm17.266,0H51.422V8.333h1.271Zm-1.924,0H49.5V8.333h1.271ZM59.1,10.628H57.831V9.48H59.1Zm-1.924,0H55.906V9.48h1.271ZM42.595,17.848H41.324V16.7h1.271Zm-1.924,0H39.4V16.7H40.67Zm43.341-3.531v-2.1c0-.865-.23-1.607-.777-1.748-.724-.194-1.095.618-1.395,1.483-.159.424-.353,1.059-.494,1.518a11.867,11.867,0,0,1,2.648.865ZM83.465,9.9c1.483,0,1.836,1.5,1.836,3.125v1.43c0,.441-.141,1.412-1.095,1.006-1.13-.477-2.736-1.342-3.46-.865-.477.318-.406.794-.406,1.818v2.436c0,1.148-.512,1.765-1.289,1.765V15.677a2.175,2.175,0,0,1,.971-2.066c.018-.018.053-.035.071-.053.689-1.377,1.2-3.672,3.372-3.672ZM65.157,7.485v9.021c.777,0,1.289-.636,1.289-1.783V7.485H65.157Z" transform="translate(-33.079 5.173)" fill="#fff"/>
        <path id="Path_77747" data-name="Path 77747" d="M38.689,17.1h1.077v.989H38.689Zm.035,2.119h.989v4.7h-.989Zm2.578,0h1.006v1.112h0a1.873,1.873,0,0,1,1.642-1.218,1.215,1.215,0,0,1,1.183,1.359V23.9H44.126V20.97c0-.6-.088-1.13-.6-1.13-.989,0-1.253,1.536-1.253,2.119V23.9H41.266V19.2Zm9.039,4.555c0,1.324-.424,2.348-2.313,2.348a4.542,4.542,0,0,1-1.359-.194V24.96a2.942,2.942,0,0,0,1.5.583c1.042,0,1.165-.724,1.165-1.765v-.512h-.018a1.253,1.253,0,0,1-1.218.653c-1.236,0-1.765-1.006-1.765-2.4s.406-2.4,1.765-2.4A1.289,1.289,0,0,1,49.317,20h.018v-.777h.989v4.555Zm-1.977-.441c.865,0,.953-1.006.953-1.765s-.124-1.836-.953-1.836S47.41,20.74,47.41,21.5c0,.794.159,1.836.953,1.836ZM56.29,17.1h1.13L59.7,23.9h-1.13l-.618-2.03H55.6l-.618,2.03H54.03l2.277-6.8Zm-.477,4.131h1.942l-.953-3.16h-.018Zm5.667-1.377H61.5A1.469,1.469,0,0,1,62.8,19.1c1.271,0,1.765,1.059,1.765,2.472,0,1.73-.847,2.436-2.083,2.436-1.836,0-2.013-1.236-2.013-2.436V17.086h.989v2.772ZM62.487,23.6c.812,0,1.006-1.077,1.006-2.03,0-.83-.194-1.907-1.006-1.907s-.971,1.006-.971,1.907C61.516,22.753,61.657,23.583,62.487,23.6Zm5.95-.477h-.018a1.309,1.309,0,0,1-1.218.883c-1.342,0-1.765-1.112-1.765-2.454,0-1.412.53-2.454,1.765-2.454a1.269,1.269,0,0,1,1.218.759h.018V17.086h1.006V23.9H68.436v-.759Zm-.971.247c.812,0,.936-1.042.936-1.818,0-.83-.071-1.889-.936-1.889-.777,0-.953,1.059-.953,1.889C66.512,22.329,66.653,23.371,67.465,23.371Zm6.338-.6h0a1.837,1.837,0,0,1-1.642,1.236,1.221,1.221,0,0,1-1.183-1.377V19.2h.989v2.948c0,.583.088,1.13.6,1.13.989,0,1.271-1.554,1.271-2.119V19.222h.989v4.7H73.821V22.806Zm2.578-5.685h.989V23.9h-.989Zm2.631,0h1.006V23.9H79.011Zm4.908,6.161H83.9a1.487,1.487,0,0,1-1.324.759,1.2,1.2,0,0,1-1.289-1.183c0-1.448,1.995-1.518,2.631-1.554v-.424c0-.512,0-1.359-.653-1.359-.618,0-.724.477-.759,1.024H81.465c.053-.706.318-1.448,1.8-1.448s1.66.865,1.66,1.783v3.019H83.919v-.653Zm0-1.554c-.406.035-1.536.124-1.536.989,0,.424.247.706.565.706a1.077,1.077,0,0,0,.971-1.13v-.547Zm2.507-4.608h.989v3.231h.018a1.878,1.878,0,0,1,1.66-1.218,1.221,1.221,0,0,1,1.183,1.377v3.443h-.989V20.988c0-.6-.088-1.13-.6-1.13-.989,0-1.271,1.536-1.271,2.119v1.942h-.989V17.1Zm12.782,4.4c0,1.253-.212,2.525-2.313,2.525s-2.313-1.289-2.313-2.525v-4.4h1.095v4.4c0,1.095.071,1.942,1.218,1.942s1.218-.847,1.218-1.942v-4.4H99.19v4.4Zm1.5-2.277h.989v1.112h.018a1.873,1.873,0,0,1,1.642-1.218,1.215,1.215,0,0,1,1.183,1.359v3.425h-.989V20.952c0-.6-.088-1.13-.6-1.13-.989,0-1.253,1.536-1.253,2.119v1.942h-.989v-4.7Zm5.385-2.119h1.077v.989h-1.077Zm.035,2.119h.989v4.7h-.989Zm1.889,0h1.059l1.218,3.354h.018l1.112-3.354h.918l-1.66,4.7h-.865l-1.783-4.7Zm8.527,4.537a3.477,3.477,0,0,1-1.377.265c-1.306,0-2.348-.777-2.348-2.666,0-1.306.53-2.26,1.995-2.26a1.682,1.682,0,0,1,1.8,1.924h-2.807c0,.918.424,2.472,1.818,2.472a2.041,2.041,0,0,0,.9-.212v.459Zm-.883-3.178c0-.371-.124-1.059-.865-1.059s-.918.794-.936,1.059Zm2.154-1.359h.989v1.2h.018c.318-.636.671-1.236,1.518-1.306v1.024c-.953.035-1.554.353-1.554,1.624V23.9H117.8V19.2Zm5.9.936a2.025,2.025,0,0,0-1.183-.459c-.318,0-.671.141-.671.494,0,.847,2.154.936,2.154,2.419,0,1.006-.794,1.43-1.783,1.43a3.947,3.947,0,0,1-1.253-.212v-.918a2.393,2.393,0,0,0,1.306.494c.547,0,.812-.3.812-.6,0-.83-2.119-.989-2.119-2.33,0-.706.459-1.359,1.642-1.359a3.714,3.714,0,0,1,1.112.194v.847Zm1.342-3.037h1.077v.989h-1.077Zm.035,2.119h.989v4.7h-.989Zm5.049,4.731a2.844,2.844,0,0,1-.689.071c-.936,0-1.483-.282-1.483-1.2V19.716h-.759V19.2h.759V18.11l.989-.6v1.712h1.289v.512h-1.289v2.7c0,.689.071,1.024.706,1.024a1.316,1.316,0,0,0,.459-.071v.565Zm2.171,0-1.8-4.749h1.042l1.236,3.354h.018l1.112-3.354h.936L132.433,26h-.794l.689-2.048Zm4.837-2.4c0-1.589.689-2.454,2.066-2.454s2.083.865,2.083,2.454-.689,2.454-2.083,2.454S137.147,23.141,137.147,21.552Zm2.066,2.048c.9,0,1.006-1.183,1.006-2.048s-.106-2.048-1.006-2.048-.989,1.183-.989,2.048S138.33,23.6,139.213,23.6Zm3.619-3.884h-.812V19.2h.812v-.441c0-.865.212-1.783,1.783-1.783a4.549,4.549,0,0,1,.989.106v.689a2.08,2.08,0,0,0-.883-.212c-.812,0-.9.583-.9,1.095v.565h1.324v.512h-1.324v4.184h-1.006V19.734ZM33.11,17.086h1.077V20.1h0l2.242-3.019h1.095l-2.4,3.107L37.788,23.9H36.5l-2.3-3.3h0v3.3H33.128V17.086Z" transform="translate(-33.11 12.467)" fill="#fff"/>
        <path id="Path_77748" data-name="Path 77748" d="M41.75,30.394a3.836,3.836,0,0,1-1.253.23c-1.483,0-2.348-.9-2.348-2.648,0-1.395.636-2.277,1.995-2.277a1.473,1.473,0,0,1,1.695,1.642H40.8c0-.565-.053-1.218-.689-1.218-.565,0-.865.671-.865,1.518,0,1.148.477,2.454,1.695,2.454a2.256,2.256,0,0,0,.83-.177v.459Zm1.024-6.673h1.077v.989H42.774Zm.035,2.1H43.8v4.7h-.989Zm5.967,4.537a3.477,3.477,0,0,1-1.377.265c-1.306,0-2.348-.759-2.348-2.666,0-1.306.53-2.26,1.995-2.26a1.682,1.682,0,0,1,1.8,1.924H46.04c0,.918.406,2.472,1.818,2.472a2.073,2.073,0,0,0,.9-.194v.459Zm-.883-3.178c0-.371-.124-1.059-.865-1.059-.777,0-.918.777-.936,1.059Zm2.154-1.359h1.006v1.112h.018a1.873,1.873,0,0,1,1.642-1.218A1.221,1.221,0,0,1,53.9,27.093v3.425H52.89V27.569c0-.6-.088-1.13-.583-1.13-.989,0-1.253,1.536-1.253,2.119V30.5H50.048V25.8ZM58.7,30.394a3.836,3.836,0,0,1-1.253.23c-1.483,0-2.348-.9-2.348-2.648,0-1.395.636-2.277,1.995-2.277,1.271,0,1.677.671,1.677,1.642H57.727c0-.565-.053-1.218-.689-1.218-.565,0-.865.671-.865,1.518,0,1.148.477,2.454,1.695,2.454a2.256,2.256,0,0,0,.83-.177v.459Zm4.378-.035a3.413,3.413,0,0,1-1.377.265c-1.306,0-2.348-.759-2.348-2.666,0-1.306.53-2.26,2.013-2.26s1.8,1.024,1.8,1.924H60.358c0,.918.424,2.472,1.818,2.472a2.073,2.073,0,0,0,.9-.194v.459Zm-.883-3.178c0-.371-.124-1.059-.865-1.059s-.918.777-.936,1.059Zm7.274,2.683H69.45a1.487,1.487,0,0,1-1.324.759,1.2,1.2,0,0,1-1.289-1.165c0-1.448,2.013-1.536,2.631-1.554V27.5c0-.512,0-1.359-.653-1.359-.618,0-.724.477-.759,1.024H67.013c.053-.706.318-1.448,1.8-1.448s1.66.865,1.66,1.783v3.019H69.467v-.653Zm0-1.554c-.406.035-1.536.124-1.536.989,0,.424.247.706.583.706a1.077,1.077,0,0,0,.971-1.13v-.547ZM71.974,25.8h.989v1.112H73a1.878,1.878,0,0,1,1.66-1.218,1.221,1.221,0,0,1,1.183,1.377V30.5H74.834V27.552c0-.6-.088-1.13-.583-1.13-.989,0-1.271,1.536-1.271,2.119v1.942h-.989v-4.7Zm8.05,3.937h-.018a1.3,1.3,0,0,1-1.218.865c-1.342,0-1.765-1.095-1.765-2.454s.53-2.454,1.765-2.454a1.269,1.269,0,0,1,1.218.759h.018V23.7h1.006v6.8H80.025v-.759Zm-.971.247c.83,0,.936-1.042.936-1.818,0-.812-.071-1.889-.936-1.889-.777,0-.953,1.077-.953,1.889S78.242,29.988,79.054,29.988Zm7.221-5.632h-1.66V23.7h4.378v.653H87.351v6.161H86.257V24.356Zm6.532,6a3.413,3.413,0,0,1-1.377.265c-1.306,0-2.348-.759-2.348-2.666,0-1.306.53-2.26,1.995-2.26a1.682,1.682,0,0,1,1.8,1.924H90.07c0,.918.406,2.472,1.818,2.472a2.073,2.073,0,0,0,.9-.194v.459Zm-.883-3.178c0-.371-.124-1.059-.865-1.059s-.918.777-.936,1.059Zm5.42,3.213a3.836,3.836,0,0,1-1.253.23c-1.483,0-2.366-.9-2.366-2.648,0-1.395.636-2.277,1.995-2.277,1.271,0,1.695.671,1.695,1.642H96.373c0-.565-.053-1.218-.689-1.218-.565,0-.865.671-.865,1.518,0,1.148.494,2.454,1.695,2.454a2.256,2.256,0,0,0,.83-.177v.459Zm1.006-6.673h.989v3.231h.018A1.873,1.873,0,0,1,101,25.733a1.221,1.221,0,0,1,1.183,1.377v3.425h-1.006V27.587c0-.6-.088-1.13-.583-1.13-.989,0-1.271,1.536-1.271,2.119v1.942h-.989V23.7Zm5.367,2.1h1.006v1.112h.018a1.85,1.85,0,0,1,1.642-1.218,1.221,1.221,0,0,1,1.183,1.377v3.425h-1.006V27.569c0-.6-.088-1.13-.583-1.13-.989,0-1.253,1.536-1.253,2.119V30.5h-1.006V25.8Zm5.049,2.348c0-1.589.689-2.454,2.066-2.454s2.083.865,2.083,2.454-.706,2.454-2.083,2.454S108.766,29.758,108.766,28.17Zm2.066,2.048c.883,0,.989-1.183.989-2.048s-.106-2.048-.989-2.048-.989,1.183-.989,2.048S109.949,30.217,110.832,30.217Zm3.337-6.5h.989v6.815h-.989Zm2.26,4.467c0-1.589.689-2.454,2.066-2.454s2.083.865,2.083,2.454-.706,2.454-2.083,2.454S116.428,29.776,116.428,28.187Zm2.066,2.048c.883,0,1.006-1.183,1.006-2.048s-.106-2.048-1.006-2.048-.989,1.183-.989,2.048S117.611,30.235,118.494,30.235Zm6.938.159c0,1.324-.424,2.348-2.313,2.348a5.2,5.2,0,0,1-1.359-.194v-.971a2.945,2.945,0,0,0,1.518.565c1.042,0,1.165-.724,1.165-1.765v-.512h0a1.253,1.253,0,0,1-1.218.653c-1.236,0-1.765-1.024-1.765-2.4s.406-2.4,1.765-2.4a1.27,1.27,0,0,1,1.218.883h0v-.777h.989v4.555Zm-1.977-.441c.865,0,.953-.989.953-1.783s-.106-1.818-.953-1.818-.953,1.024-.953,1.783c0,.794.159,1.836.953,1.836Zm4.59.618-1.8-4.749h1.042l1.236,3.354h.018l1.095-3.354h.936l-2.419,6.815h-.794ZM36.966,24.727a3.787,3.787,0,0,0-1.695-.459c-.6,0-1.024.335-1.024.865,0,1.43,3.213,1.395,3.213,3.531,0,1.43-1.112,1.995-2.472,1.995a6.45,6.45,0,0,1-1.73-.247V29.352a4.163,4.163,0,0,0,1.907.6c.706,0,1.218-.282,1.218-.971,0-1.554-3.213-1.465-3.213-3.584,0-1.095.812-1.748,2.224-1.748a8.619,8.619,0,0,1,1.571.177v.936Z" transform="translate(-33.064 17.573)" fill="#fff"/>
      </g>
      <g id="Group_88850" data-name="Group 88850" transform="translate(200.907)">
        <path id="Path_77749" data-name="Path 77749" d="M113.79,10.628C113.79,5.049,115.485,0,121.823,0s8.05,5.049,8.05,10.628-1.73,10.628-8.05,10.628S113.79,16.189,113.79,10.628Zm8.033,8.245c4.113,0,4.784-4.873,4.784-8.245s-.653-8.245-4.784-8.245-4.749,4.873-4.749,8.245S117.692,18.873,121.823,18.873Z" transform="translate(-113.79 0)" fill="#fff"/>
        <path id="Path_77750" data-name="Path 77750" d="M126.65,8.8h-2.56V6.719h2.56V5.077c0-3.337,1.783-5.067,5.438-5.067a12.976,12.976,0,0,1,2.86.265V2.517a9.95,9.95,0,0,0-2.842-.424c-2.154,0-2.772,1.73-2.772,3.16V6.719h4.237V8.8h-4.237V20.913H126.65V8.8Z" transform="translate(-105.906 0.008)" fill="#fff"/>
        <path id="Path_77751" data-name="Path 77751" d="M132.615,8.8h-2.6V6.719h2.6V5.077c0-3.337,1.783-5.067,5.438-5.067a12.976,12.976,0,0,1,2.86.265V2.517a9.95,9.95,0,0,0-2.842-.424c-2.154,0-2.772,1.73-2.772,3.16V6.719h4.237V8.8H135.3V20.913h-2.683V8.8Zm8.9-8.474h3.231V3.364h-3.231V.328Zm.3,6.391H144.5V20.93h-2.683V6.7Z" transform="translate(-101.367 0.008)" fill="#fff"/>
        <path id="Path_77752" data-name="Path 77752" d="M151.193,17.945a12.535,12.535,0,0,1-3.937.53c-5.438,0-6.956-4.414-6.956-7.944,0-3.972,1.818-6.921,6.055-6.921s5.067,2.631,5.067,4.961H148.35c0-1.077-.212-2.86-2.171-2.86-1.765,0-2.9,1.695-2.9,4.325,0,2.807,1.165,6.356,5.649,6.356a7.181,7.181,0,0,0,2.26-.3v1.854Z" transform="translate(-93.498 2.763)" fill="#fff"/>
        <path id="Path_77753" data-name="Path 77753" d="M158.113,18.008a13.588,13.588,0,0,1-3.549.477c-4.29,0-7.044-2.542-7.044-8.121,0-6.091,3.972-6.744,5.791-6.744,3.46,0,5.137,2.366,5.137,5.7v.689H150.2c0,2.648,1.342,6.391,5.226,6.391a7.646,7.646,0,0,0,2.683-.512v2.119Zm-2.366-9.8a2.429,2.429,0,0,0-2.6-2.507,2.739,2.739,0,0,0-2.842,2.507Z" transform="translate(-87.972 2.771)" fill="#fff"/>
        <path id="Path_77754" data-name="Path 77754" d="M160.03,11.052c0-4.537,1.995-7.432,6.3-7.432s6.267,2.9,6.267,7.432-1.995,7.432-6.267,7.432S160.03,15.537,160.03,11.052Zm6.3,5.349c2.9,0,3.284-3.072,3.284-5.349S169.228,5.7,166.333,5.7s-3.319,3.037-3.319,5.349S163.367,16.4,166.333,16.4Z" transform="translate(-78.396 2.771)" fill="#fff"/>
        <path id="Path_77755" data-name="Path 77755" d="M170.8,8.8h-2.56V6.719h2.56V5.077c0-3.337,1.783-5.067,5.438-5.067a12.976,12.976,0,0,1,2.86.265V2.517a9.95,9.95,0,0,0-2.842-.424c-2.154,0-2.772,1.73-2.772,3.16V6.719h4.237V8.8h-4.237V20.913H170.8V8.8Z" transform="translate(-72.112 0.008)" fill="#fff"/>
        <path id="Path_77756" data-name="Path 77756" d="M193.152,20.02a13.8,13.8,0,0,1-5.4,1.218c-4.537,0-8.209-2.807-8.209-10.857C179.54,4.926,181.323,0,187.326,0c4.2,0,6.62,2.454,6.62,5.967h-3.46c0-1.253-.353-3.584-3.248-3.584-3.884,0-4.414,4.714-4.414,7.521,0,5.155,1.253,8.951,5.526,8.951a8.644,8.644,0,0,0,4.8-1.607V20.02Z" transform="translate(-63.463 0)" fill="#fff"/>
        <path id="Path_77757" data-name="Path 77757" d="M197.388,14.975h-.053a4.7,4.7,0,0,1-4.5,3.372c-3.284,0-3.813-2.931-3.813-4.678V3.8H191.7v7.768c0,2.648,0,4.1,1.942,4.1,2.207,0,3.76-2.984,3.76-5.826V3.8h2.683V18.012h-2.683V14.975Z" transform="translate(-56.206 2.909)" fill="#fff"/>
        <path id="Path_77758" data-name="Path 77758" d="M198.04.19h2.683v20.6H198.04Z" transform="translate(-49.302 0.145)" fill="#fff"/>
        <path id="Path_77759" data-name="Path 77759" d="M210.4,20.3a10.516,10.516,0,0,1-2.118.212c-3.425,0-4.272-1.518-4.272-3.46V8.067H201.47V5.984h2.542V2.647L206.7.97V5.984h3.937V8.067H206.7v7.574c0,1.289.177,2.772,2.26,2.772a5.172,5.172,0,0,0,1.43-.212v2.083Z" transform="translate(-46.677 0.742)" fill="#fff"/>
        <path id="Path_77760" data-name="Path 77760" d="M216.5,14.975h-.053a4.7,4.7,0,0,1-4.5,3.372c-3.284,0-3.813-2.931-3.813-4.678V3.8h2.683v7.768c0,2.648,0,4.1,1.942,4.1,2.207,0,3.76-2.984,3.76-5.826V3.8H219.2V18.012h-2.683V14.975Z" transform="translate(-41.579 2.909)" fill="#fff"/>
        <path id="Path_77761" data-name="Path 77761" d="M216.98,3.945h2.683v2.86h.053a4.544,4.544,0,0,1,4.4-3.2V6.541c-2.419,0-4.449,1.218-4.449,5.579v6.038H216.98Z" transform="translate(-34.805 2.763)" fill="#fff"/>
        <path id="Path_77762" data-name="Path 77762" d="M232.633,18.008a13.588,13.588,0,0,1-3.549.477c-4.29,0-7.044-2.542-7.044-8.121,0-6.091,3.972-6.744,5.791-6.744,3.46,0,5.137,2.366,5.137,5.7v.689h-8.245c0,2.648,1.342,6.391,5.226,6.391a7.646,7.646,0,0,0,2.683-.512v2.119Zm-2.366-9.8a2.429,2.429,0,0,0-2.6-2.507,2.739,2.739,0,0,0-2.842,2.507Z" transform="translate(-30.932 2.771)" fill="#fff"/>
        <path id="Path_77763" data-name="Path 77763" d="M230.271,9.52h3.284l-1.253,6.9H229.83Z" transform="translate(-24.969 7.287)" fill="#fff"/>
        <path id="Path_77764" data-name="Path 77764" d="M114.36,15.8h11.369v2.383h-8.386v6.3h7.962v2.383h-7.962V34h8.651v2.383H114.36V15.78Z" transform="translate(-113.354 12.079)" fill="#fff"/>
        <path id="Path_77765" data-name="Path 77765" d="M122.728,19.555h2.683v3.037h.053a4.733,4.733,0,0,1,4.5-3.372c3.284,0,3.813,2.931,3.813,4.678V33.75H131.1V25.982c0-2.631,0-4.1-1.942-4.1-2.207,0-3.76,2.984-3.76,5.826V33.75H122.71V19.538Z" transform="translate(-106.962 14.712)" fill="#fff"/>
        <path id="Path_77766" data-name="Path 77766" d="M131.49,19.555h2.683v2.86h.053a4.544,4.544,0,0,1,4.4-3.2v2.931c-2.419,0-4.449,1.218-4.449,5.579v6.038H131.49Z" transform="translate(-100.242 14.712)" fill="#fff"/>
        <path id="Path_77767" data-name="Path 77767" d="M137.14,15.79h3.231v3.037H137.14Zm.265,6.391h2.683V36.393H137.4Z" transform="translate(-95.917 12.086)" fill="#fff"/>
        <path id="Path_77768" data-name="Path 77768" d="M151.8,33.555a12.614,12.614,0,0,1-3.937.53c-5.438,0-6.956-4.414-6.956-7.944,0-3.972,1.818-6.921,6.055-6.921s5.067,2.631,5.067,4.961H148.96c0-1.077-.212-2.86-2.172-2.86-1.765,0-2.9,1.695-2.9,4.325,0,2.807,1.165,6.356,5.649,6.356a7.357,7.357,0,0,0,2.277-.3v1.854Z" transform="translate(-93.031 14.712)" fill="#fff"/>
        <path id="Path_77769" data-name="Path 77769" d="M148.708,15.8h2.683v9.427h.053a4.733,4.733,0,0,1,4.5-3.372c3.284,0,3.813,2.931,3.813,4.678v9.851h-2.683V28.615c0-2.63,0-4.1-1.942-4.1-2.207,0-3.76,2.984-3.76,5.826v6.038H148.69V15.78Z" transform="translate(-87.076 12.079)" fill="#fff"/>
        <path id="Path_77770" data-name="Path 77770" d="M157.508,19.548h2.683V22.39h.053a4.249,4.249,0,0,1,3.972-3.16,3.4,3.4,0,0,1,3.619,3.019h.053a4.4,4.4,0,0,1,4.025-3.019c3.337,0,3.849,2.931,3.849,4.678V33.76h-2.683V25.992c0-2.648,0-4.1-1.977-4.1-1.677,0-3.142,2.648-3.142,5.049v6.8h-2.683V25.974c0-2.63,0-4.1-1.871-4.1s-3.231,2.984-3.231,5.826v6.038H157.49V19.53Z" transform="translate(-80.34 14.719)" fill="#fff"/>
        <path id="Path_77771" data-name="Path 77771" d="M180.333,33.608a13.588,13.588,0,0,1-3.549.477c-4.29,0-7.044-2.542-7.044-8.121,0-6.091,3.972-6.744,5.791-6.744,3.46,0,5.137,2.348,5.137,5.7v.689h-8.245c0,2.648,1.342,6.391,5.226,6.391a7.646,7.646,0,0,0,2.683-.512v2.119Zm-2.366-9.781a2.429,2.429,0,0,0-2.6-2.507,2.739,2.739,0,0,0-2.842,2.507Z" transform="translate(-70.964 14.712)" fill="#fff"/>
        <path id="Path_77772" data-name="Path 77772" d="M177.828,19.555h2.683v3.037h.053a4.733,4.733,0,0,1,4.5-3.372c3.284,0,3.813,2.931,3.813,4.678V33.75H186.2V25.982c0-2.631,0-4.1-1.942-4.1-2.207,0-3.76,2.984-3.76,5.826V33.75H177.81V19.538Z" transform="translate(-64.787 14.712)" fill="#fff"/>
        <path id="Path_77773" data-name="Path 77773" d="M194.743,35.9a10.516,10.516,0,0,1-2.119.212c-3.425,0-4.272-1.518-4.272-3.46V23.667H185.81V21.584h2.542V18.247l2.683-1.677v5.014h3.937v2.083h-3.937v7.574c0,1.289.177,2.772,2.26,2.772a5.172,5.172,0,0,0,1.43-.212v2.083Z" transform="translate(-58.663 12.683)" fill="#fff"/>
        <path id="Path_77774" data-name="Path 77774" d="M192.7,25.12h3.284l-1.253,6.9H192.26Z" transform="translate(-53.726 19.228)" fill="#fff"/>
        <path id="Path_77775" data-name="Path 77775" d="M208.54,32h-.053a3.927,3.927,0,0,1-3.672,2.083c-2.648,0-4.025-1.607-4.025-3.813,0-3.76,4.149-4.661,7.768-4.661V23.139a2.014,2.014,0,0,0-2.171-1.818,2.065,2.065,0,0,0-2.277,2.171h-2.842c0-2.26,1.342-4.272,5.314-4.272,4.661,0,4.661,3.5,4.661,4.784v9.763h-2.683V32Zm-.53-4.59c-2.119,0-4.237.953-4.237,2.772A1.664,1.664,0,0,0,205.327,32c1.854,0,3.231-2.119,3.231-3.8v-.812h-.53Z" transform="translate(-47.197 14.712)" fill="#fff"/>
        <path id="Path_77776" data-name="Path 77776" d="M209.138,19.555h2.683v3.037h.053a4.733,4.733,0,0,1,4.5-3.372c3.284,0,3.813,2.931,3.813,4.678V33.75h-2.683V25.982c0-2.631,0-4.1-1.942-4.1-2.207,0-3.76,2.984-3.76,5.826V33.75H209.12V19.538Z" transform="translate(-40.821 14.712)" fill="#fff"/>
        <path id="Path_77777" data-name="Path 77777" d="M226.2,34.2h-.053a4.106,4.106,0,0,1-3.937,2.507c-3.46,0-4.873-3.142-4.873-7.185,0-4.714,1.783-7.662,5.014-7.662a3.9,3.9,0,0,1,3.8,2.3h.053V15.8h2.683V36.4H226.2V34.231Zm-3.072.424c2.171,0,3.072-3.019,3.072-5.367,0-2.472-.724-5.314-3.107-5.314-2.083,0-2.772,2.366-2.772,5.349,0,2.154.3,5.349,2.807,5.349Z" transform="translate(-34.529 12.094)" fill="#fff"/>
        <path id="Path_77778" data-name="Path 77778" d="M231.47,15.8h11.369v2.383h-8.386v6.3h7.962v2.383h-7.962V34H243.1v2.383H231.47V15.78Z" transform="translate(-23.713 12.079)" fill="#fff"/>
        <path id="Path_77779" data-name="Path 77779" d="M239.828,19.555h2.683v3.037h.053a4.733,4.733,0,0,1,4.5-3.372c3.284,0,3.813,2.931,3.813,4.678V33.75H248.2V25.982c0-2.631,0-4.1-1.942-4.1-2.207,0-3.76,2.984-3.76,5.826V33.75H239.81V19.538Z" transform="translate(-17.33 14.712)" fill="#fff"/>
        <path id="Path_77780" data-name="Path 77780" d="M259.568,34.324c0,4.113-2.33,5.826-6.567,5.826a17.609,17.609,0,0,1-4.361-.512V36.92a9.4,9.4,0,0,0,4.1,1.13c4.149,0,4.149-2.9,4.149-4.5V31.341h-.053a4.053,4.053,0,0,1-3.9,2.419c-3.725,0-4.89-3.46-4.89-7.1,0-4.025,1.465-7.432,5.067-7.432a3.979,3.979,0,0,1,3.725,2.3h.053V19.548h2.683Zm-5.826-2.648c2.3,0,3.142-3.072,3.142-5.349,0-2.154-.741-5.014-3.107-5.014s-2.772,3.142-2.772,5.279c0,1.871.353,5.067,2.754,5.067Z" transform="translate(-11.03 14.719)" fill="#fff"/>
        <path id="Path_77781" data-name="Path 77781" d="M264.28,32h-.053a3.927,3.927,0,0,1-3.672,2.083c-2.648,0-4.025-1.607-4.025-3.813,0-3.76,4.149-4.661,7.768-4.661V23.139a2.014,2.014,0,0,0-2.172-1.818,2.065,2.065,0,0,0-2.277,2.171h-2.842c0-2.26,1.342-4.272,5.314-4.272,4.661,0,4.661,3.5,4.661,4.784v9.763H264.3V32Zm-.53-4.59c-2.119,0-4.237.953-4.237,2.772A1.664,1.664,0,0,0,261.067,32c1.854,0,3.231-2.119,3.231-3.8v-.812h-.53Z" transform="translate(-4.532 14.712)" fill="#fff"/>
        <path id="Path_77782" data-name="Path 77782" d="M275.848,34.324c0,4.113-2.33,5.826-6.567,5.826a17.609,17.609,0,0,1-4.361-.512V36.92a9.4,9.4,0,0,0,4.1,1.13c4.149,0,4.149-2.9,4.149-4.5V31.341h-.053a4.053,4.053,0,0,1-3.9,2.419c-3.725,0-4.89-3.46-4.89-7.1,0-4.025,1.465-7.432,5.067-7.432a3.979,3.979,0,0,1,3.725,2.3h.053V19.548h2.683Zm-5.826-2.648c2.3,0,3.143-3.072,3.143-5.349,0-2.154-.742-5.014-3.107-5.014s-2.772,3.142-2.772,5.279c0,1.871.353,5.067,2.754,5.067Z" transform="translate(1.431 14.719)" fill="#fff"/>
        <path id="Path_77783" data-name="Path 77783" d="M283.353,33.608a13.588,13.588,0,0,1-3.549.477c-4.29,0-7.044-2.542-7.044-8.121,0-6.091,3.972-6.744,5.791-6.744,3.46,0,5.137,2.348,5.137,5.7v.689h-8.245c0,2.648,1.342,6.391,5.226,6.391a7.646,7.646,0,0,0,2.683-.512v2.119Zm-2.366-9.781a2.429,2.429,0,0,0-2.6-2.507,2.739,2.739,0,0,0-2.842,2.507Z" transform="translate(7.891 14.712)" fill="#fff"/>
        <path id="Path_77784" data-name="Path 77784" d="M280.868,19.548h2.683V22.39h.053a4.249,4.249,0,0,1,3.972-3.16,3.4,3.4,0,0,1,3.619,3.019h.053a4.4,4.4,0,0,1,4.025-3.019c3.337,0,3.849,2.931,3.849,4.678V33.76h-2.683V25.992c0-2.648,0-4.1-1.977-4.1-1.677,0-3.142,2.648-3.142,5.049v6.8h-2.683V25.974c0-2.63,0-4.1-1.871-4.1s-3.231,2.984-3.231,5.826v6.038H280.85V19.53Z" transform="translate(14.084 14.719)" fill="#fff"/>
        <path id="Path_77785" data-name="Path 77785" d="M303.693,33.608a13.588,13.588,0,0,1-3.549.477c-4.29,0-7.044-2.542-7.044-8.121,0-6.091,3.972-6.744,5.791-6.744,3.46,0,5.137,2.348,5.137,5.7v.689h-8.245c0,2.648,1.342,6.391,5.226,6.391a7.645,7.645,0,0,0,2.683-.512v2.119Zm-2.366-9.781a2.429,2.429,0,0,0-2.6-2.507,2.739,2.739,0,0,0-2.842,2.507Z" transform="translate(23.46 14.712)" fill="#fff"/>
        <path id="Path_77786" data-name="Path 77786" d="M301.188,19.555h2.683v3.037h.053a4.733,4.733,0,0,1,4.5-3.372c3.284,0,3.813,2.931,3.813,4.678V33.75h-2.683V25.982c0-2.631,0-4.1-1.942-4.1-2.207,0-3.76,2.984-3.76,5.826V33.75H301.17V19.538Z" transform="translate(29.637 14.712)" fill="#fff"/>
        <path id="Path_77787" data-name="Path 77787" d="M318.1,35.9a10.516,10.516,0,0,1-2.119.212c-3.425,0-4.272-1.518-4.272-3.46V23.667H309.17V21.584h2.542V18.247L314.4,16.57v5.014h3.937v2.083H314.4v7.574c0,1.289.177,2.772,2.26,2.772a5.171,5.171,0,0,0,1.43-.212v2.083Z" transform="translate(35.761 12.683)" fill="#fff"/>
      </g>
    </g>
  </g>
</svg>
