<svg xmlns="http://www.w3.org/2000/svg" width="17.259" height="17.259" viewBox="0 0 17.259 17.259">
  <path id="External_Link" d="M20.259,4.542V9.42a.542.542,0,0,1-1.084,0V5.85L11.429,13.6a.542.542,0,0,1-.766-.766l7.746-7.746H14.84A.542.542,0,1,1,14.84,4h4.878a.542.542,0,0,1,.542.542ZM18.091,18.633v-6.5a.542.542,0,0,0-1.084,0v6.5a.542.542,0,0,1-.542.542H5.626a.542.542,0,0,1-.542-.542V7.794a.542.542,0,0,1,.542-.542h6.5a.542.542,0,1,0,0-1.084h-6.5A1.628,1.628,0,0,0,4,7.794v10.84a1.628,1.628,0,0,0,1.626,1.626h10.84A1.628,1.628,0,0,0,18.091,18.633Z" transform="translate(-3.5 -3.5)" fill="#fff" stroke="#fff" stroke-width="1"/>
</svg>
