<svg xmlns="http://www.w3.org/2000/svg" width="20.14" height="20.139" viewBox="0 0 20.14 20.139">
  <g id="Group_88813" data-name="Group 88813" transform="translate(-1572 -146)">
    <g id="Group_43151" data-name="Group 43151" transform="translate(1587.436 149.727)">
      <path id="Path_77588" data-name="Path 77588" d="M392.89,94.739a.489.489,0,1,0,.489.489A.49.49,0,0,0,392.89,94.739Z" transform="translate(-392.401 -94.739)" fill="#fff"/>
    </g>
    <g id="Group_43153" data-name="Group 43153" transform="translate(1577.734 151.736)">
      <path id="Path_77589" data-name="Path 77589" d="M150.139,145.8a4.335,4.335,0,1,0,4.335,4.335A4.339,4.339,0,0,0,150.139,145.8Z" transform="translate(-145.804 -145.804)" fill="#fff"/>
    </g>
    <g id="Group_43155" data-name="Group 43155" transform="translate(1572 146)">
      <path id="Path_77590" data-name="Path 77590" d="M14.619,0h-9.1A5.527,5.527,0,0,0,0,5.521v9.1a5.527,5.527,0,0,0,5.521,5.521h9.1a5.527,5.527,0,0,0,5.521-5.521v-9.1A5.527,5.527,0,0,0,14.619,0ZM10.07,15.594a5.524,5.524,0,1,1,5.524-5.524A5.53,5.53,0,0,1,10.07,15.594Zm5.854-9.7A1.678,1.678,0,1,1,17.6,4.215,1.68,1.68,0,0,1,15.924,5.894Z" fill="#fff"/>
    </g>
  </g>
</svg>
