<svg xmlns="http://www.w3.org/2000/svg" width="24.787" height="20.139" viewBox="0 0 24.787 20.139">
  <path id="twitter_1_" data-name="twitter (1)" d="M22.24,7.272a10.144,10.144,0,0,0,2.547-2.638h0a10.613,10.613,0,0,1-2.928.8A5.055,5.055,0,0,0,24.1,2.628a10.168,10.168,0,0,1-3.222,1.23,5.081,5.081,0,0,0-8.79,3.474A5.232,5.232,0,0,0,12.2,8.491,14.387,14.387,0,0,1,1.726,3.175,5.081,5.081,0,0,0,3.287,9.967a5.023,5.023,0,0,1-2.3-.626V9.4A5.105,5.105,0,0,0,5.063,14.39a5.053,5.053,0,0,1-1.332.167,4.485,4.485,0,0,1-.962-.087,5.132,5.132,0,0,0,4.748,3.54,10.215,10.215,0,0,1-6.3,2.167A9.611,9.611,0,0,1,0,20.109a14.311,14.311,0,0,0,7.8,2.28A14.364,14.364,0,0,0,22.24,7.272Z" transform="translate(0 -2.25)" fill="#fff"/>
</svg>
