<svg xmlns="http://www.w3.org/2000/svg" width="28.37" height="20.095" viewBox="0 0 28.37 20.095">
  <path id="youtube_1_" data-name="youtube (1)" d="M27.742,6.371l.035.232a3.6,3.6,0,0,0-2.445-2.5L25.308,4.1C23.1,3.5,14.2,3.5,14.2,3.5s-8.877-.012-11.112.6A3.6,3.6,0,0,0,.623,6.578L.617,6.6A39.544,39.544,0,0,0,.654,20.725l-.037-.234a3.6,3.6,0,0,0,2.445,2.5l.025.006c2.209.6,11.112.6,11.112.6s8.876,0,11.112-.6a3.6,3.6,0,0,0,2.463-2.478l.006-.025a36.957,36.957,0,0,0,.591-6.676c0-.086,0-.174,0-.261s0-.176,0-.272a38.128,38.128,0,0,0-.628-6.91ZM11.358,17.863V9.242l7.407,4.317Z" transform="translate(0 -3.5)" fill="#fff"/>
</svg>
